<?xml version="1.0" encoding="UTF-8" standalone="no"?>
<!-- Created with Inkscape (http://www.inkscape.org/) -->

<svg
   width="102.17882mm"
   height="88.946655mm"
   viewBox="0 0 102.17882 88.946655"
   version="1.1"
   id="svg1"
   inkscape:version="1.3.2 (091e20ef0f, 2023-11-25, custom)"
   sodipodi:docname="outline.svg"
   xmlns:inkscape="http://www.inkscape.org/namespaces/inkscape"
   xmlns:sodipodi="http://sodipodi.sourceforge.net/DTD/sodipodi-0.dtd"
   xmlns="http://www.w3.org/2000/svg"
   xmlns:svg="http://www.w3.org/2000/svg">
  <sodipodi:namedview
     id="namedview1"
     pagecolor="#ffffff"
     bordercolor="#cccccc"
     borderopacity="1"
     inkscape:showpageshadow="0"
     inkscape:pageopacity="1"
     inkscape:pagecheckerboard="0"
     inkscape:deskcolor="#d1d1d1"
     inkscape:document-units="mm"
     inkscape:zoom="1.6824259"
     inkscape:cx="169.10106"
     inkscape:cy="135.5186"
     inkscape:window-width="1864"
     inkscape:window-height="1000"
     inkscape:window-x="20"
     inkscape:window-y="20"
     inkscape:window-maximized="1"
     inkscape:current-layer="layer1" />
  <defs
     id="defs1" />
  <g
     inkscape:label="Layer 1"
     inkscape:groupmode="layer"
     id="layer1"
     transform="translate(-2.3008579,-2.5218359)">
    <path
       id="path1-2"
       style="fill:none;stroke:#000000;stroke-width:0.264583px;stroke-linecap:butt;stroke-linejoin:miter;stroke-opacity:1"
       d="M 74.097656,2.6601562 C 66.663628,3.2634334 59.850681,7.0842009 54.407755,12.022213 53.875327,12.499155 53.344257,12.977615 52.810547,13.453125 47.814335,9.0776294 41.829251,5.4383502 35.135385,4.5857474 32.614034,4.2650094 30.048545,4.3197958 27.636719,4.6933594 18.897496,6.0467728 10.884586,11.536203 6.5737992,19.274533 2.3596302,26.559981 1.3765127,35.556077 3.5600744,43.613831 c 0.6302785,2.239685 1.4846246,4.36481 2.3188318,6.507263 3.9241446,9.388261 10.8595208,17.361078 19.4486498,22.790976 8.296055,5.869059 16.77251,11.493996 24.871774,17.63347 3.043901,1.636822 7.019041,0.591942 9.285045,-1.895149 C 70.363861,79.872728 82.723246,73.108469 93.625555,64.406009 103.42691,54.93097 107.03296,39.541303 102.24219,26.746094 99.65932,19.517764 95.162987,12.67026 89.00847,7.8653781 84.777769,4.6125641 79.481848,2.5269782 74.097656,2.6601562 Z" />
    <path
       id="path1"
       style="fill:#1a1a1a;stroke:#000000;stroke-width:0.264583px;stroke-linecap:butt;stroke-linejoin:miter;stroke-opacity:1"
       d="M 74.207031,5.3027344 C 67.29057,5.8861686 60.996653,9.5367826 55.978123,14.168759 54.922827,15.115662 53.868398,16.063533 52.8125,17.009766 48.115382,12.612516 42.610878,8.6675167 36.181641,7.40625 26.67096,5.6115692 16.428585,9.9701291 10.72502,17.767884 4.8559761,25.51018 3.4671242,36.357388 6.9375,45.349609 c 2.9299305,9.215497 8.828958,17.344804 16.563287,23.068595 3.203178,2.22722 6.497241,4.578224 9.772634,6.83084 6.148397,4.226037 12.313068,8.441908 18.225779,12.989826 2.103634,1.124139 4.723879,0.127108 6.2138,-1.557014 C 68.415694,77.996632 80.536906,71.2841 91.429588,62.856556 98.444126,56.268563 102.14029,46.55041 101.68678,36.980295 101.23886,29.168462 97.863494,21.632381 93.012081,15.491705 89.262748,10.776587 84.162532,6.817403 78.141092,5.6493629 76.847332,5.3933021 75.525668,5.2776839 74.207031,5.3027344 Z" />
  </g>
</svg>
