<?xml version="1.0" encoding="UTF-8" standalone="no"?>
<!-- Created with Inkscape (http://www.inkscape.org/) -->

<svg
   width="39.557606mm"
   height="36.896564mm"
   viewBox="0 0 39.557606 36.896564"
   version="1.1"
   id="svg1"
   inkscape:version="1.3.2 (091e20ef0f, 2023-11-25, custom)"
   sodipodi:docname="stamp.svg"
   xmlns:inkscape="http://www.inkscape.org/namespaces/inkscape"
   xmlns:sodipodi="http://sodipodi.sourceforge.net/DTD/sodipodi-0.dtd"
   xmlns="http://www.w3.org/2000/svg"
   xmlns:svg="http://www.w3.org/2000/svg">
  <sodipodi:namedview
     id="namedview1"
     pagecolor="#ffffff"
     bordercolor="#cccccc"
     borderopacity="1"
     inkscape:showpageshadow="0"
     inkscape:pageopacity="1"
     inkscape:pagecheckerboard="0"
     inkscape:deskcolor="#d1d1d1"
     inkscape:document-units="mm"
     inkscape:zoom="1.2185252"
     inkscape:cx="66.473801"
     inkscape:cy="178.08413"
     inkscape:window-width="1864"
     inkscape:window-height="1000"
     inkscape:window-x="20"
     inkscape:window-y="20"
     inkscape:window-maximized="1"
     inkscape:current-layer="layer1" />
  <defs
     id="defs1" />
  <g
     inkscape:label="Layer 1"
     inkscape:groupmode="layer"
     id="layer1"
     transform="translate(-78.853165,-78.716)">
    <g
       id="text1"
       style="font-size:25.4px;line-height:0.35;font-family:'Helvetica Neue';-inkscape-font-specification:'Helvetica Neue';letter-spacing:0.910167px;fill:none;stroke:#000000;stroke-width:0.265;stroke-dasharray:none;stroke-opacity:1"
       aria-label="S&#10; +&#10;   L"
       transform="translate(-1.0095595,0.06923269)">
      <path
         d="m 91.913876,79.721845 v 2.443261 q -1.426269,-0.682128 -2.691308,-1.016992 -1.265039,-0.334863 -2.443262,-0.334863 -2.046387,0 -3.162598,0.79375 -1.103808,0.79375 -1.103808,2.257227 0,1.227832 0.731738,1.860351 0.744141,0.620117 2.80293,1.00459 l 1.513086,0.310058 q 2.802929,0.533301 4.12998,1.885157 1.339453,1.339453 1.339453,3.596679 0,2.691309 -1.810742,4.080371 -1.79834,1.389063 -5.283398,1.389063 -1.314649,0 -2.80293,-0.297656 -1.475879,-0.297657 -3.063379,-0.880567 v -2.579687 q 1.525488,0.855761 2.988965,1.289843 1.463476,0.434082 2.877344,0.434082 2.145605,0 3.311425,-0.843359 1.165821,-0.843359 1.165821,-2.406055 0,-1.364257 -0.84336,-2.133203 -0.830957,-0.768945 -2.740918,-1.153418 l -1.525488,-0.297656 q -2.80293,-0.558105 -4.055566,-1.74873 -1.252637,-1.190625 -1.252637,-3.311426 0,-2.455664 1.723926,-3.869531 1.736328,-1.413867 4.774902,-1.413867 1.302246,0 2.654102,0.235644 1.351855,0.235645 2.765722,0.706934 z"
         id="path5"
         style="fill:none;stroke:#000000;stroke-width:0.265;stroke-dasharray:none;stroke-opacity:1" />
      <path
         d="m 98.988008,90.596219 v 6.908106 h 6.908102 v 2.108398 h -6.908102 v 6.908107 h -2.083594 v -6.908107 h -6.908105 v -2.108398 h 6.908105 v -6.908106 z"
         id="path6"
         style="fill:none;stroke:#000000;stroke-width:0.265;stroke-dasharray:none;stroke-opacity:1" />
      <path
         d="m 107.76606,96.894129 h 2.50527 v 16.408301 h 9.0165 v 2.1084 h -11.52177 z"
         id="path7"
         style="fill:none;stroke:#000000;stroke-width:0.265;stroke-dasharray:none;stroke-opacity:1" />
    </g>
  </g>
</svg>
