<?xml version="1.0" encoding="UTF-8" standalone="no"?>
<!-- Created with Inkscape (http://www.inkscape.org/) -->

<svg
   width="34.00552mm"
   height="35.813545mm"
   viewBox="0 0 34.00552 35.813545"
   version="1.1"
   id="svg1"
   inkscape:version="1.3.2 (091e20ef0f, 2023-11-25, custom)"
   sodipodi:docname="stamp.svg"
   xmlns:inkscape="http://www.inkscape.org/namespaces/inkscape"
   xmlns:sodipodi="http://sodipodi.sourceforge.net/DTD/sodipodi-0.dtd"
   xmlns="http://www.w3.org/2000/svg"
   xmlns:svg="http://www.w3.org/2000/svg">
  <sodipodi:namedview
     id="namedview1"
     pagecolor="#ffffff"
     bordercolor="#cccccc"
     borderopacity="1"
     inkscape:showpageshadow="0"
     inkscape:pageopacity="1"
     inkscape:pagecheckerboard="0"
     inkscape:deskcolor="#d1d1d1"
     inkscape:document-units="mm"
     inkscape:zoom="4.0496288"
     inkscape:cx="59.38816"
     inkscape:cy="64.203416"
     inkscape:window-width="1864"
     inkscape:window-height="1000"
     inkscape:window-x="20"
     inkscape:window-y="20"
     inkscape:window-maximized="1"
     inkscape:current-layer="text2" />
  <defs
     id="defs1" />
  <g
     inkscape:label="Layer 1"
     inkscape:groupmode="layer"
     id="layer1"
     transform="translate(-81.810654,-79.259372)">
    <g
       id="text1"
       style="font-size:25.4px;line-height:0.35;font-family:'Helvetica Neue';-inkscape-font-specification:'Helvetica Neue';letter-spacing:0.910167px;fill:none;stroke:#000000;stroke-width:0.265;stroke-dasharray:none;stroke-opacity:1"
       aria-label="S&#10; +&#10;   L"
       transform="translate(-1.0095595,0.06923269)">
      <g
         id="text2"
         style="font-size:29.9861px;line-height:0.3;font-family:Z003;-inkscape-font-specification:Z003;stroke-width:0.0701146"
         aria-label="S&#10; +&#10;  L">
        <path
           d="m 84.174659,93.738468 -1.319389,3.118555 c 1.049514,1.409346 2.428874,2.069041 4.407957,2.069041 4.587873,0 9.085788,-3.718277 9.085788,-7.556497 0,-1.229431 -0.449791,-1.859139 -2.698749,-3.598332 -2.188985,-1.709208 -2.548818,-2.218972 -2.548818,-3.508374 0,-1.979083 1.469319,-3.628318 3.238498,-3.628318 1.259417,0 1.709208,0.53975 2.039055,2.45886 l 1.979083,-1.409347 c -0.179917,-1.619249 -1.0795,-2.45886 -2.668763,-2.45886 -3.088568,0 -6.596942,3.38843 -6.596942,6.387039 0,1.379361 0.599722,2.30893 2.368902,3.688291 2.039055,1.619249 2.578804,2.428874 2.578804,3.808234 0,2.368902 -2.248957,4.407957 -4.857748,4.407957 -1.289402,0 -2.60879,-0.569736 -3.418415,-1.469319 -0.629708,-0.68968 -0.869597,-1.319388 -1.109486,-2.638777 z"
           id="path3" />
        <path
           d="m 100.4077,100.03555 h 5.33753 V 98.4163 H 100.4077 V 93.078775 H 98.788453 V 98.4163 h -5.337526 v 1.61925 h 5.337526 v 5.33753 h 1.619247 z"
           id="path4" />
        <path
           d="m 113.82205,97.57669 c -0.59972,-0.05997 -0.86959,-0.08996 -1.31939,-0.08996 -0.56973,0 -1.10948,0.05997 -1.58926,0.179917 -0.80962,0.209903 -2.24896,1.22943 -3.4484,2.428872 -1.46932,1.49931 -1.97908,2.90865 -3.14854,8.45608 -0.80963,3.83822 -1.58926,4.94771 -3.47839,4.94771 -0.2099,0 -0.59972,0 -0.929568,-0.03 -0.419805,0.41981 -0.599722,0.62971 -1.049513,1.19945 1.379361,-0.06 2.099031,-0.09 2.938641,-0.09 0.80962,0 2.3689,0.06 4.58787,0.14993 4.85775,0.23989 5.03766,0.23989 5.90726,0.23989 1.55928,0 2.21897,-0.32985 2.75872,-1.43934 0.35984,-0.68968 1.2894,-2.75872 1.7392,-3.89819 l -0.32985,-0.56973 c -1.9491,4.10809 -2.27894,4.28801 -7.43655,4.25802 h -5.66738 c 2.00907,-1.88912 2.12902,-2.03905 2.51884,-2.90865 0.44979,-1.16946 0.47977,-1.2894 1.52929,-5.78732 0.95955,-3.59833 0.95955,-3.62831 1.22943,-4.10809 0.50976,-0.959558 1.13947,-1.319391 2.24895,-1.319391 0.41981,0 0.68969,0 1.76918,0.05997 z"
           id="path5" />
      </g>
    </g>
  </g>
</svg>
