<?xml version="1.0" encoding="UTF-8" standalone="no"?>
<!-- Created with Inkscape (http://www.inkscape.org/) -->

<svg
   width="70.47403mm"
   height="56.507141mm"
   viewBox="0 0 70.47403 56.507141"
   version="1.1"
   id="svg1"
   inkscape:version="1.3.2 (091e20ef0f, 2023-11-25, custom)"
   sodipodi:docname="stamp.svg"
   xmlns:inkscape="http://www.inkscape.org/namespaces/inkscape"
   xmlns:sodipodi="http://sodipodi.sourceforge.net/DTD/sodipodi-0.dtd"
   xmlns="http://www.w3.org/2000/svg"
   xmlns:svg="http://www.w3.org/2000/svg">
  <sodipodi:namedview
     id="namedview1"
     pagecolor="#ffffff"
     bordercolor="#cccccc"
     borderopacity="1"
     inkscape:showpageshadow="0"
     inkscape:pageopacity="1"
     inkscape:pagecheckerboard="0"
     inkscape:deskcolor="#d1d1d1"
     inkscape:document-units="mm"
     inkscape:zoom="0.71624579"
     inkscape:cx="162.65366"
     inkscape:cy="302.96862"
     inkscape:window-width="1864"
     inkscape:window-height="986"
     inkscape:window-x="20"
     inkscape:window-y="42"
     inkscape:window-maximized="1"
     inkscape:current-layer="layer1" />
  <defs
     id="defs1" />
  <g
     inkscape:label="Layer 1"
     inkscape:groupmode="layer"
     id="layer1"
     transform="translate(-61.912499,-68.2625)">
    <path
       style="font-weight:600;font-size:42.3333px;line-height:0.25;font-family:FreeSans;-inkscape-font-specification:'FreeSans Semi-Bold';fill:none;stroke:#000000;stroke-width:0.565;stroke-opacity:1"
       d="m 86.536731,78.475079 c 0.269735,-4.175935 -2.592139,-8.169213 -6.674413,-9.158934 -4.87242,-1.277098 -10.878613,-1.264305 -14.757451,2.382237 -2.981627,3.164997 -3.395164,9.012338 -0.100611,12.09521 4.269603,3.330901 10.179998,2.389245 14.854459,4.754601 2.66338,1.453775 1.990969,5.843306 -0.878395,6.651765 -3.284802,1.104241 -8.082435,1.082188 -10.037706,-2.297161 0.02552,-2.349667 -1.39788,-2.372387 -3.276792,-2.193394 -1.156913,0 -2.313826,0 -3.470739,0 -0.01995,4.672074 3.512524,8.8737 8.105862,9.691967 5.227712,1.04816 11.719002,0.79461 15.429965,-3.565875 2.912713,-3.766427 2.752665,-10.528689 -1.836465,-12.942735 -4.326468,-2.257213 -9.551867,-1.677132 -13.872993,-3.914849 -2.69523,-1.93486 -0.584433,-6.115531 2.408937,-6.176744 3.146172,-0.624083 7.647178,0.326261 8.116242,4.103467 0.231988,1.165756 2.275069,0.307848 3.315345,0.570445 0.891585,0 1.78317,0 2.674755,0 z"
       id="path4" />
    <path
       style="font-weight:600;font-size:42.3333px;line-height:0.25;font-family:FreeSans;-inkscape-font-specification:'FreeSans Semi-Bold';fill:none;stroke:#000000;stroke-width:0.565;stroke-opacity:1"
       d="m 106.61939,99.881565 c -2.56822,0 -5.13644,0 -7.704664,0 0,-2.56822 0,-5.136441 0,-7.704661 -1.67922,0 -3.35844,0 -5.03766,0 0,2.56822 0,5.136441 0,7.704661 -2.56822,0 -5.13644,0 -7.70466,0 0,1.679225 0,3.358445 0,5.037665 2.56822,0 5.13644,0 7.70466,0 0,2.56822 0,5.13644 0,7.70466 1.67922,0 3.35844,0 5.03766,0 0,-2.56822 0,-5.13644 0,-7.70466 2.568224,0 5.136444,0 7.704664,0 0,-1.67922 0,-3.35844 0,-5.037665 z"
       id="path5" />
    <path
       style="font-weight:600;font-size:42.3333px;line-height:0.25;font-family:FreeSans;-inkscape-font-specification:'FreeSans Semi-Bold';fill:none;stroke:#000000;stroke-width:0.565;stroke-opacity:1"
       d="m 117.32971,93.626158 c -2.11667,0 -4.23333,0 -6.35,0 0,10.286992 0,20.573992 0,30.860982 7.04144,0 14.08288,0 21.12432,0 0,-1.76389 0,-3.52778 0,-5.29167 -4.92477,0 -9.84955,0 -14.77432,0 0,-8.52311 0,-17.04621 0,-25.569312 z"
       id="path6" />
  </g>
</svg>
