<?xml version="1.0" encoding="UTF-8" standalone="no"?>
<!-- Created with Inkscape (http://www.inkscape.org/) -->

<svg
   width="47.112595mm"
   height="47.676323mm"
   viewBox="0 0 47.112595 47.676322"
   version="1.1"
   id="svg1"
   inkscape:version="1.3.2 (091e20ef0f, 2023-11-25, custom)"
   sodipodi:docname="stamp.svg"
   xmlns:inkscape="http://www.inkscape.org/namespaces/inkscape"
   xmlns:sodipodi="http://sodipodi.sourceforge.net/DTD/sodipodi-0.dtd"
   xmlns="http://www.w3.org/2000/svg"
   xmlns:svg="http://www.w3.org/2000/svg">
  <sodipodi:namedview
     id="namedview1"
     pagecolor="#ffffff"
     bordercolor="#cccccc"
     borderopacity="1"
     inkscape:showpageshadow="0"
     inkscape:pageopacity="1"
     inkscape:pagecheckerboard="0"
     inkscape:deskcolor="#d1d1d1"
     inkscape:document-units="mm"
     inkscape:zoom="1.9196256"
     inkscape:cx="86.735663"
     inkscape:cy="118.77316"
     inkscape:window-width="1864"
     inkscape:window-height="1000"
     inkscape:window-x="20"
     inkscape:window-y="20"
     inkscape:window-maximized="1"
     inkscape:current-layer="text5" />
  <defs
     id="defs1" />
  <g
     inkscape:label="Layer 1"
     inkscape:groupmode="layer"
     id="layer1"
     transform="translate(-84.162201,-58.900694)">
    <g
       id="text1"
       style="font-size:25.4px;line-height:0.35;font-family:'Helvetica Neue';-inkscape-font-specification:'Helvetica Neue';letter-spacing:0.910167px;fill:none;stroke:#000000;stroke-width:0.265;stroke-dasharray:none;stroke-opacity:1"
       aria-label="S&#10; +&#10;   L"
       transform="translate(-1.0095595,0.06923269)">
      <g
         id="text2"
         style="font-size:29.9861px;line-height:0.3;font-family:Z003;-inkscape-font-specification:Z003;stroke-width:0.0701146"
         aria-label="S&#10; +&#10;  L">
        <g
           id="text5"
           style="font-size:44.0972px;line-height:0.35;stroke-width:0.0185512"
           aria-label="S&#10; +&#10;  L">
          <path
             d="m 87.12265,80.183792 -1.940277,4.586111 c 1.543402,2.07257 3.571874,3.042708 6.482291,3.042708 6.746875,0 13.361466,-5.468055 13.361466,-11.112499 0,-1.807986 -0.66146,-2.734028 -3.96876,-5.291667 -3.219095,-2.513541 -3.748262,-3.263194 -3.748262,-5.159375 0,-2.910416 2.160764,-5.335764 4.762512,-5.335764 1.85208,0 2.51354,0.79375 2.99861,3.615973 l 2.91041,-2.07257 c -0.26458,-2.38125 -1.58749,-3.615972 -3.92465,-3.615972 -4.542021,0 -9.701395,4.982986 -9.701395,9.392708 0,2.028472 0.881944,3.395486 3.48368,5.423958 2.998615,2.38125 3.792375,3.571875 3.792375,5.600348 0,3.48368 -3.307306,6.482291 -7.143764,6.482291 -1.89618,0 -3.836458,-0.837847 -5.027083,-2.160764 C 88.533761,82.565042 88.180984,81.639 87.828206,79.698723 Z"
             id="path8" />
          <path
             d="m 107.39146,89.532401 h 7.8493 v -2.381249 h -7.8493 v -7.849306 h -2.38125 v 7.849306 h -7.8493 v 2.381249 h 7.8493 v 7.849306 h 2.38125 z"
             id="path9" />
          <path
             d="m 127.90845,80.922143 c -0.88194,-0.08819 -1.27882,-0.132292 -1.94027,-0.132292 -0.83785,0 -1.6316,0.08819 -2.33716,0.264584 -1.19062,0.30868 -3.30729,1.807986 -5.07118,3.571875 -2.16076,2.204861 -2.91041,4.27743 -4.6302,12.435389 -1.19063,5.644441 -2.33716,7.276041 -5.11528,7.276041 -0.30868,0 -0.88195,0 -1.36702,-0.0441 -0.61736,0.61737 -0.88194,0.92605 -1.5434,1.76389 2.02847,-0.0882 3.08681,-0.13229 4.32153,-0.13229 1.19062,0 3.48368,0.0882 6.74687,0.22049 7.14375,0.35278 7.40834,0.35278 8.68716,0.35278 2.29305,0 3.26319,-0.48507 4.05694,-2.11667 0.52917,-1.01424 1.89618,-4.05695 2.55764,-5.73265 l -0.48507,-0.837844 c -2.86632,6.041324 -3.35139,6.305914 -10.93611,6.261814 h -8.33438 c 2.95452,-2.77813 3.13091,-2.99861 3.70417,-4.277432 0.66146,-1.719792 0.70556,-1.896182 2.24896,-8.510738 1.41111,-5.291666 1.41111,-5.335764 1.80799,-6.041319 0.74965,-1.411111 1.67569,-1.940278 3.30729,-1.940278 0.61736,0 1.01423,0 2.60173,0.08819 z"
             id="path10" />
        </g>
      </g>
    </g>
  </g>
</svg>
