<svg width="173" height="174" viewBox="0 0 173 174" fill="none" xmlns="http://www.w3.org/2000/svg">
<path fill-rule="evenodd" clip-rule="evenodd" d="M75.0782 165.456L86.0513 148.735L96.7272 165.647L85.8411 172.519L75.0782 165.456ZM72.4567 26.5736C67.0641 22.9375 60.4382 20.5 53.2757 20.5C35.1742 20.5 20.5 40.9848 20.5 61.4696C20.5 105.717 86.0513 148.735 86.0513 148.735C75.0782 165.456 75.0741 165.453 75.0697 165.45L75.0597 165.444L75.0352 165.427L74.9683 165.383C74.9157 165.348 74.8474 165.303 74.7638 165.247C74.5967 165.136 74.3684 164.983 74.0831 164.789C73.5126 164.402 72.7128 163.852 71.7164 163.15C69.7258 161.748 66.9388 159.73 63.6195 157.178C57.0141 152.1 48.1349 144.782 39.1779 135.881C30.2836 127.042 20.8731 116.211 13.5869 104.052C6.35433 91.9827 0.5 77.4093 0.5 61.4696C0.5 46.6957 5.70176 32.1764 14.2694 21.0801C22.7821 10.055 36.2915 0.5 53.2757 0.5C66.1774 0.5 77.5344 5.29019 86.1385 11.7775C94.6537 5.35479 105.932 0.5 118.827 0.5C135.952 0.5 149.45 10.3035 157.872 21.2846C166.366 32.3586 171.603 46.8438 171.603 61.4696C171.603 93.1279 149.717 120.019 132.835 136.585C123.833 145.418 114.911 152.603 108.272 157.568C104.936 160.064 102.133 162.03 100.128 163.396C99.1248 164.08 98.3182 164.615 97.7411 164.993C97.4525 165.181 97.221 165.331 97.0507 165.441C97.0088 165.468 96.9706 165.492 96.9362 165.514C96.9006 165.537 96.8691 165.557 96.8416 165.574L96.7724 165.618L96.7467 165.635L96.7362 165.641C96.7316 165.644 96.7272 165.647 86.0513 148.735C86.0513 148.735 151.603 107.355 151.603 61.4696C151.603 41.3945 136.928 20.5 118.827 20.5C111.721 20.5 105.144 22.962 99.775 26.6019C91.4662 32.2349 86.0513 40.6889 86.0513 47.2051C86.0513 40.4751 80.6924 32.1266 72.4567 26.5736Z" fill="#FFC5C5"/>
<path d="M78.3391 73.6174H70.5109V56.3439H78.9016C81.0187 56.3752 82.5187 56.9885 83.4016 58.1838C83.9328 58.9182 84.1984 59.7971 84.1984 60.8205C84.1984 61.8752 83.9328 62.7228 83.4016 63.3635C83.1047 63.7228 82.6672 64.051 82.0891 64.3478C82.9719 64.6682 83.6359 65.176 84.0812 65.8713C84.5344 66.5666 84.7609 67.4103 84.7609 68.4025C84.7609 69.426 84.5031 70.3439 83.9875 71.1564C83.6594 71.6955 83.2492 72.1486 82.757 72.5158C82.2023 72.9377 81.5461 73.2267 80.7883 73.383C80.0383 73.5392 79.2219 73.6174 78.3391 73.6174ZM78.257 66.0119H73.9562V70.6174H78.1984C78.9562 70.6174 79.5461 70.5158 79.968 70.3127C80.7336 69.9377 81.1164 69.2189 81.1164 68.1564C81.1164 67.258 80.7453 66.6408 80.0031 66.3049C79.5891 66.1174 79.007 66.0197 78.257 66.0119ZM80.05 62.7189C80.5187 62.4377 80.7531 61.9338 80.7531 61.2072C80.7531 60.4025 80.4406 59.8713 79.8156 59.6135C79.2766 59.4338 78.5891 59.3439 77.7531 59.3439H73.9562V63.1525H78.1984C78.9562 63.1525 79.5734 63.008 80.05 62.7189ZM102.22 66.0705H93.8289V70.5119H103.391V73.6174H90.3016V56.3439H102.97V59.4025H93.8289V63.0705H102.22V66.0705ZM58.0211 107.617H54.6578V90.3439H59.9078L63.0484 103.926L66.1656 90.3439H71.357V107.617H67.9938V95.9338C67.9938 95.5978 67.9977 95.1291 68.0055 94.5275C68.0133 93.9182 68.0172 93.4494 68.0172 93.1213L64.7477 107.617H61.2438L57.9977 93.1213C57.9977 93.4494 58.0016 93.9182 58.0094 94.5275C58.0172 95.1291 58.0211 95.5978 58.0211 95.9338V107.617ZM76.8273 90.3439H80.4133V107.617H76.8273V90.3439ZM100.157 107.617H96.5477L89.493 95.3478V107.617H86.1297V90.3439H89.9148L96.7938 102.403V90.3439H100.157V107.617ZM117.955 100.07H109.565V104.512H119.127V107.617H106.038V90.3439H118.705V93.4025H109.565V97.0705H117.955V100.07Z" fill="#FF3232"/>
</svg>
