<svg width="246" height="70" viewBox="0 0 246 70" fill="none" xmlns="http://www.w3.org/2000/svg">
<path d="M60.82 20.37C60.2867 20.49 59.74 20.57 59.18 20.61C58.6333 20.6633 58.0933 20.69 57.56 20.69C57.04 20.69 56.6333 20.6767 56.34 20.65C56.06 20.6233 55.6867 20.5567 55.22 20.45C54.7533 20.3433 54.3267 20.1967 53.94 20.01C53.5533 19.8233 53.14 19.55 52.7 19.19C52.2733 18.83 51.9133 18.4033 51.62 17.91C50.94 16.7633 50.6 15.2833 50.6 13.47C50.6 12.2567 50.7867 11.1833 51.16 10.25C51.5467 9.31668 52.0067 8.59668 52.54 8.09001C53.0867 7.58334 53.7067 7.17668 54.4 6.87001C55.52 6.36334 56.6467 6.11001 57.78 6.11001C59.4067 6.11001 60.5733 6.24334 61.28 6.51001C61.6 6.63001 61.8867 6.81668 62.14 7.07001C62.3933 7.32334 62.52 7.69001 62.52 8.17001C62.52 8.65001 62.4 9.25668 62.16 9.99001C61.9333 10.7233 61.6 11.09 61.16 11.09C61.0267 11.09 60.5333 10.9833 59.68 10.77C58.8267 10.5567 58.2467 10.45 57.94 10.45C57.4733 10.45 57.0733 10.71 56.74 11.23C56.42 11.75 56.26 12.49 56.26 13.45C56.26 14.41 56.4 15.1567 56.68 15.69C56.9733 16.2233 57.3533 16.49 57.82 16.49C58.1533 16.49 58.7533 16.3567 59.62 16.09C60.5 15.81 61.0133 15.67 61.16 15.67C61.5733 15.67 61.8933 16.05 62.12 16.81C62.36 17.57 62.48 18.1833 62.48 18.65C62.48 19.1167 62.3333 19.49 62.04 19.77C61.76 20.0367 61.3533 20.2367 60.82 20.37ZM69.985 20.69C68.985 20.69 68.125 20.6033 67.405 20.43C66.685 20.2567 66.0317 19.95 65.445 19.51C64.2317 18.63 63.625 16.99 63.625 14.59C63.625 12.4567 64.245 10.93 65.485 10.01C66.645 9.15668 68.145 8.73001 69.985 8.73001C70.7717 8.73001 71.445 8.77001 72.005 8.85001C72.565 8.91668 73.1317 9.07001 73.705 9.31001C74.2917 9.55001 74.7583 9.87668 75.105 10.29C75.465 10.7033 75.7583 11.2767 75.985 12.01C76.2117 12.73 76.325 13.59 76.325 14.59C76.325 16.6167 75.7517 18.1433 74.605 19.17C73.4583 20.1833 71.9183 20.69 69.985 20.69ZM69.285 16.79C69.3783 17.27 69.4717 17.5567 69.565 17.65C69.6717 17.7433 69.805 17.79 69.965 17.79C70.1383 17.79 70.2717 17.7433 70.365 17.65C70.4717 17.5567 70.565 17.27 70.645 16.79C70.7383 16.31 70.785 15.71 70.785 14.99C70.785 14.2567 70.765 13.6967 70.725 13.31C70.6983 12.91 70.6583 12.6033 70.605 12.39C70.565 12.1767 70.505 12.01 70.425 11.89C70.305 11.7167 70.1583 11.63 69.985 11.63C69.825 11.63 69.6917 11.6833 69.585 11.79C69.4783 11.8833 69.3783 12.1767 69.285 12.67C69.1917 13.15 69.145 13.8367 69.145 14.73C69.145 15.6233 69.1917 16.31 69.285 16.79ZM83.6764 20.69C82.6764 20.69 81.8164 20.6033 81.0964 20.43C80.3764 20.2567 79.7231 19.95 79.1364 19.51C77.9231 18.63 77.3164 16.99 77.3164 14.59C77.3164 12.4567 77.9364 10.93 79.1764 10.01C80.3364 9.15668 81.8364 8.73001 83.6764 8.73001C84.4631 8.73001 85.1364 8.77001 85.6964 8.85001C86.2564 8.91668 86.8231 9.07001 87.3964 9.31001C87.9831 9.55001 88.4497 9.87668 88.7964 10.29C89.1564 10.7033 89.4497 11.2767 89.6764 12.01C89.9031 12.73 90.0164 13.59 90.0164 14.59C90.0164 16.6167 89.4431 18.1433 88.2964 19.17C87.1497 20.1833 85.6097 20.69 83.6764 20.69ZM82.9764 16.79C83.0697 17.27 83.1631 17.5567 83.2564 17.65C83.3631 17.7433 83.4964 17.79 83.6564 17.79C83.8297 17.79 83.9631 17.7433 84.0564 17.65C84.1631 17.5567 84.2564 17.27 84.3364 16.79C84.4297 16.31 84.4764 15.71 84.4764 14.99C84.4764 14.2567 84.4564 13.6967 84.4164 13.31C84.3897 12.91 84.3497 12.6033 84.2964 12.39C84.2564 12.1767 84.1964 12.01 84.1164 11.89C83.9964 11.7167 83.8497 11.63 83.6764 11.63C83.5164 11.63 83.3831 11.6833 83.2764 11.79C83.1697 11.8833 83.0697 12.1767 82.9764 12.67C82.8831 13.15 82.8364 13.8367 82.8364 14.73C82.8364 15.6233 82.8831 16.31 82.9764 16.79ZM96.6078 20.03C96.6078 20.1767 96.2345 20.2967 95.4878 20.39C94.7411 20.47 93.9611 20.51 93.1478 20.51C92.3345 20.51 91.8078 20.4767 91.5678 20.41C91.3278 20.33 91.2078 20.2033 91.2078 20.03V6.19001C91.2078 5.89668 91.5811 5.61001 92.3278 5.33001C93.0878 5.05001 93.9011 4.91001 94.7678 4.91001C95.9945 4.91001 96.6078 5.21668 96.6078 5.83001V13.31H96.8678C97.5078 10.2567 97.9811 8.73001 98.2878 8.73001C99.0611 8.73001 99.9945 8.91001 101.088 9.27001C102.181 9.63001 102.728 10.03 102.728 10.47C102.728 10.79 102.461 11.4033 101.928 12.31C101.394 13.2167 100.841 13.9567 100.268 14.53C102.174 16.81 103.128 18.1633 103.128 18.59C103.128 18.99 102.521 19.4767 101.308 20.05C100.094 20.6233 99.2411 20.91 98.7478 20.91C98.5078 20.91 98.2545 20.6233 97.9878 20.05C97.7211 19.4633 97.4345 18.59 97.1278 17.43L96.6078 18.05V20.03ZM109.423 10.17V20.03C109.423 20.1767 109.036 20.2967 108.263 20.39C107.503 20.47 106.716 20.51 105.903 20.51C105.103 20.51 104.583 20.4767 104.343 20.41C104.116 20.33 104.003 20.2033 104.003 20.03V10.53C104.003 10.2367 104.376 9.95001 105.123 9.67001C105.883 9.37668 106.709 9.23001 107.603 9.23001C108.816 9.23001 109.423 9.54334 109.423 10.17ZM106.703 4.91001C107.583 4.91001 108.269 5.04334 108.763 5.31001C109.269 5.56334 109.523 6.03001 109.523 6.71001C109.523 7.91001 108.589 8.51001 106.723 8.51001C104.856 8.51001 103.923 7.91001 103.923 6.71001C103.923 5.51001 104.849 4.91001 106.703 4.91001ZM116.175 15.99C116.175 16.8567 116.588 17.29 117.415 17.29C117.895 17.29 118.522 17.13 119.295 16.81C120.068 16.4767 120.475 16.31 120.515 16.31C120.768 16.31 121.102 16.69 121.515 17.45C121.928 18.21 122.135 18.77 122.135 19.13C122.135 19.65 121.602 20.0433 120.535 20.31C119.468 20.5767 118.422 20.71 117.395 20.71C116.382 20.71 115.528 20.63 114.835 20.47C114.155 20.31 113.595 20.11 113.155 19.87C112.728 19.6167 112.348 19.31 112.015 18.95C111.695 18.59 111.455 18.25 111.295 17.93C111.135 17.5967 111.008 17.23 110.915 16.83C110.782 16.2433 110.715 15.6367 110.715 15.01C110.715 12.5833 111.348 10.91 112.615 9.99001C113.242 9.52334 113.942 9.19668 114.715 9.01001C115.488 8.82334 116.402 8.73001 117.455 8.73001C120.828 8.73001 122.515 9.90334 122.515 12.25C122.515 14.7433 120.622 15.99 116.835 15.99H116.175ZM116.135 13.07V14.39C116.522 14.39 116.835 14.2367 117.075 13.93C117.328 13.6233 117.455 13.25 117.455 12.81C117.455 12.01 117.248 11.61 116.835 11.61C116.368 11.61 116.135 12.0967 116.135 13.07ZM138.32 20.37C137.787 20.49 137.24 20.57 136.68 20.61C136.133 20.6633 135.593 20.69 135.06 20.69C134.54 20.69 134.133 20.6767 133.84 20.65C133.56 20.6233 133.187 20.5567 132.72 20.45C132.253 20.3433 131.827 20.1967 131.44 20.01C131.053 19.8233 130.64 19.55 130.2 19.19C129.773 18.83 129.413 18.4033 129.12 17.91C128.44 16.7633 128.1 15.2833 128.1 13.47C128.1 12.2567 128.287 11.1833 128.66 10.25C129.047 9.31668 129.507 8.59668 130.04 8.09001C130.587 7.58334 131.207 7.17668 131.9 6.87001C133.02 6.36334 134.147 6.11001 135.28 6.11001C136.907 6.11001 138.073 6.24334 138.78 6.51001C139.1 6.63001 139.387 6.81668 139.64 7.07001C139.893 7.32334 140.02 7.69001 140.02 8.17001C140.02 8.65001 139.9 9.25668 139.66 9.99001C139.433 10.7233 139.1 11.09 138.66 11.09C138.527 11.09 138.033 10.9833 137.18 10.77C136.327 10.5567 135.747 10.45 135.44 10.45C134.973 10.45 134.573 10.71 134.24 11.23C133.92 11.75 133.76 12.49 133.76 13.45C133.76 14.41 133.9 15.1567 134.18 15.69C134.473 16.2233 134.853 16.49 135.32 16.49C135.653 16.49 136.253 16.3567 137.12 16.09C138 15.81 138.513 15.67 138.66 15.67C139.073 15.67 139.393 16.05 139.62 16.81C139.86 17.57 139.98 18.1833 139.98 18.65C139.98 19.1167 139.833 19.49 139.54 19.77C139.26 20.0367 138.853 20.2367 138.32 20.37ZM145.345 20.69C143.852 20.69 142.805 20.3033 142.205 19.53C141.618 18.7567 141.325 17.41 141.325 15.49V10.05C141.325 9.78334 141.718 9.53001 142.505 9.29001C143.292 9.03668 144.118 8.91001 144.985 8.91001C146.145 8.91001 146.725 9.21001 146.725 9.81001V14.89C146.725 15.9033 146.765 16.6433 146.845 17.11C146.925 17.5633 147.125 17.79 147.445 17.79C147.872 17.79 148.085 17.61 148.085 17.25V10.05C148.085 9.77001 148.498 9.51001 149.325 9.27001C150.152 9.03001 151.052 8.91001 152.025 8.91001C152.998 8.91001 153.485 9.17001 153.485 9.69001V19.99C153.485 20.1767 153.065 20.31 152.225 20.39C151.385 20.47 150.558 20.51 149.745 20.51C148.932 20.51 148.518 20.4033 148.505 20.19L148.305 18.89H148.145C148.025 19.37 147.785 19.7633 147.425 20.07C147.238 20.23 146.958 20.3767 146.585 20.51C146.225 20.63 145.812 20.69 145.345 20.69ZM162.74 20.33C162.5 20.5567 161.953 20.67 161.1 20.67C160.246 20.67 159.54 20.6167 158.98 20.51C158.42 20.39 157.886 20.1633 157.38 19.83C156.406 19.1767 155.92 17.8167 155.92 15.75V12.63H154.92C154.773 12.63 154.646 12.4767 154.54 12.17C154.433 11.8633 154.38 11.4433 154.38 10.91C154.38 10.3767 154.46 9.91001 154.62 9.51001C154.793 9.09668 155.013 8.89001 155.28 8.89001H155.92V6.47001C155.92 6.05668 156.32 5.72334 157.12 5.47001C157.933 5.21668 158.726 5.09001 159.5 5.09001C160.713 5.09001 161.32 5.39001 161.32 5.99001V8.89001H162.8C163.146 8.89001 163.32 9.39001 163.32 10.39C163.32 11.0433 163.24 11.5833 163.08 12.01C162.933 12.4233 162.74 12.63 162.5 12.63H161.32V16.29C161.32 16.65 161.473 16.91 161.78 17.07C162.086 17.2167 162.353 17.29 162.58 17.29C162.82 17.29 162.966 17.4033 163.02 17.63C163.073 17.8567 163.1 18.1967 163.1 18.65C163.1 19.5433 162.98 20.1033 162.74 20.33ZM172.388 20.33C172.148 20.5567 171.601 20.67 170.748 20.67C169.895 20.67 169.188 20.6167 168.628 20.51C168.068 20.39 167.535 20.1633 167.028 19.83C166.055 19.1767 165.568 17.8167 165.568 15.75V12.63H164.568C164.421 12.63 164.295 12.4767 164.188 12.17C164.081 11.8633 164.028 11.4433 164.028 10.91C164.028 10.3767 164.108 9.91001 164.268 9.51001C164.441 9.09668 164.661 8.89001 164.928 8.89001H165.568V6.47001C165.568 6.05668 165.968 5.72334 166.768 5.47001C167.581 5.21668 168.375 5.09001 169.148 5.09001C170.361 5.09001 170.968 5.39001 170.968 5.99001V8.89001H172.448C172.795 8.89001 172.968 9.39001 172.968 10.39C172.968 11.0433 172.888 11.5833 172.728 12.01C172.581 12.4233 172.388 12.63 172.148 12.63H170.968V16.29C170.968 16.65 171.121 16.91 171.428 17.07C171.735 17.2167 172.001 17.29 172.228 17.29C172.468 17.29 172.615 17.4033 172.668 17.63C172.721 17.8567 172.748 18.1967 172.748 18.65C172.748 19.5433 172.628 20.1033 172.388 20.33ZM179.437 15.99C179.437 16.8567 179.85 17.29 180.677 17.29C181.157 17.29 181.783 17.13 182.557 16.81C183.33 16.4767 183.737 16.31 183.777 16.31C184.03 16.31 184.363 16.69 184.777 17.45C185.19 18.21 185.397 18.77 185.397 19.13C185.397 19.65 184.863 20.0433 183.797 20.31C182.73 20.5767 181.683 20.71 180.657 20.71C179.643 20.71 178.79 20.63 178.097 20.47C177.417 20.31 176.857 20.11 176.417 19.87C175.99 19.6167 175.61 19.31 175.277 18.95C174.957 18.59 174.717 18.25 174.557 17.93C174.397 17.5967 174.27 17.23 174.177 16.83C174.043 16.2433 173.977 15.6367 173.977 15.01C173.977 12.5833 174.61 10.91 175.877 9.99001C176.503 9.52334 177.203 9.19668 177.977 9.01001C178.75 8.82334 179.663 8.73001 180.717 8.73001C184.09 8.73001 185.777 9.90334 185.777 12.25C185.777 14.7433 183.883 15.99 180.097 15.99H179.437ZM179.397 13.07V14.39C179.783 14.39 180.097 14.2367 180.337 13.93C180.59 13.6233 180.717 13.25 180.717 12.81C180.717 12.01 180.51 11.61 180.097 11.61C179.63 11.61 179.397 12.0967 179.397 13.07ZM192.37 14.19V20.03C192.37 20.1767 191.99 20.2967 191.23 20.39C190.483 20.47 189.703 20.51 188.89 20.51C188.09 20.51 187.57 20.4767 187.33 20.41C187.09 20.33 186.97 20.2033 186.97 20.03V10.17C186.97 9.91668 187.336 9.64334 188.07 9.35001C188.816 9.05668 189.623 8.91001 190.49 8.91001C191.37 8.91001 191.863 9.15001 191.97 9.63001L192.17 10.55H192.31C192.496 10.0433 192.943 9.61668 193.65 9.27001C194.356 8.91001 195.063 8.73001 195.77 8.73001C196.476 8.73001 196.97 8.84334 197.25 9.07001C197.543 9.29668 197.69 9.59001 197.69 9.95001C197.69 10.2967 197.663 10.7433 197.61 11.29C197.556 11.8367 197.423 12.43 197.21 13.07C197.01 13.71 196.743 14.03 196.41 14.03C196.276 14.03 195.856 13.93 195.15 13.73C194.443 13.53 193.856 13.43 193.39 13.43C192.936 13.43 192.65 13.4967 192.53 13.63C192.423 13.7633 192.37 13.95 192.37 14.19ZM60.82 43.37C60.2867 43.49 59.74 43.57 59.18 43.61C58.6333 43.6633 58.0933 43.69 57.56 43.69C57.04 43.69 56.6333 43.6767 56.34 43.65C56.06 43.6233 55.6867 43.5567 55.22 43.45C54.7533 43.3433 54.3267 43.1967 53.94 43.01C53.5533 42.8233 53.14 42.55 52.7 42.19C52.2733 41.83 51.9133 41.4033 51.62 40.91C50.94 39.7633 50.6 38.2833 50.6 36.47C50.6 35.2567 50.7867 34.1833 51.16 33.25C51.5467 32.3167 52.0067 31.5967 52.54 31.09C53.0867 30.5833 53.7067 30.1767 54.4 29.87C55.52 29.3633 56.6467 29.11 57.78 29.11C59.4067 29.11 60.5733 29.2433 61.28 29.51C61.6 29.63 61.8867 29.8167 62.14 30.07C62.3933 30.3233 62.52 30.69 62.52 31.17C62.52 31.65 62.4 32.2567 62.16 32.99C61.9333 33.7233 61.6 34.09 61.16 34.09C61.0267 34.09 60.5333 33.9833 59.68 33.77C58.8267 33.5567 58.2467 33.45 57.94 33.45C57.4733 33.45 57.0733 33.71 56.74 34.23C56.42 34.75 56.26 35.49 56.26 36.45C56.26 37.41 56.4 38.1567 56.68 38.69C56.9733 39.2233 57.3533 39.49 57.82 39.49C58.1533 39.49 58.7533 39.3567 59.62 39.09C60.5 38.81 61.0133 38.67 61.16 38.67C61.5733 38.67 61.8933 39.05 62.12 39.81C62.36 40.57 62.48 41.1833 62.48 41.65C62.48 42.1167 62.3333 42.49 62.04 42.77C61.76 43.0367 61.3533 43.2367 60.82 43.37ZM69.225 37.19V43.03C69.225 43.1767 68.845 43.2967 68.085 43.39C67.3383 43.47 66.5583 43.51 65.745 43.51C64.945 43.51 64.425 43.4767 64.185 43.41C63.945 43.33 63.825 43.2033 63.825 43.03V33.17C63.825 32.9167 64.1917 32.6433 64.925 32.35C65.6717 32.0567 66.4783 31.91 67.345 31.91C68.225 31.91 68.7183 32.15 68.825 32.63L69.025 33.55H69.165C69.3517 33.0433 69.7983 32.6167 70.505 32.27C71.2117 31.91 71.9183 31.73 72.625 31.73C73.3317 31.73 73.825 31.8433 74.105 32.07C74.3983 32.2967 74.545 32.59 74.545 32.95C74.545 33.2967 74.5183 33.7433 74.465 34.29C74.4117 34.8367 74.2783 35.43 74.065 36.07C73.865 36.71 73.5983 37.03 73.265 37.03C73.1317 37.03 72.7117 36.93 72.005 36.73C71.2983 36.53 70.7117 36.43 70.245 36.43C69.7917 36.43 69.505 36.4967 69.385 36.63C69.2783 36.7633 69.225 36.95 69.225 37.19ZM80.8038 38.99C80.8038 39.8567 81.2171 40.29 82.0438 40.29C82.5238 40.29 83.1504 40.13 83.9238 39.81C84.6971 39.4767 85.1038 39.31 85.1438 39.31C85.3971 39.31 85.7304 39.69 86.1437 40.45C86.5571 41.21 86.7638 41.77 86.7638 42.13C86.7638 42.65 86.2304 43.0433 85.1638 43.31C84.0971 43.5767 83.0504 43.71 82.0238 43.71C81.0104 43.71 80.1571 43.63 79.4638 43.47C78.7838 43.31 78.2238 43.11 77.7837 42.87C77.3571 42.6167 76.9771 42.31 76.6438 41.95C76.3238 41.59 76.0838 41.25 75.9238 40.93C75.7638 40.5967 75.6371 40.23 75.5438 39.83C75.4104 39.2433 75.3438 38.6367 75.3438 38.01C75.3438 35.5833 75.9771 33.91 77.2438 32.99C77.8704 32.5233 78.5704 32.1967 79.3438 32.01C80.1171 31.8233 81.0304 31.73 82.0838 31.73C85.4571 31.73 87.1438 32.9033 87.1438 35.25C87.1438 37.7433 85.2504 38.99 81.4638 38.99H80.8038ZM80.7638 36.07V37.39C81.1504 37.39 81.4638 37.2367 81.7038 36.93C81.9571 36.6233 82.0838 36.25 82.0838 35.81C82.0838 35.01 81.8771 34.61 81.4638 34.61C80.9971 34.61 80.7638 35.0967 80.7638 36.07ZM92.1367 43.69C90.9234 43.69 89.9701 43.4033 89.2767 42.83C88.9967 42.59 88.7501 42.2367 88.5367 41.77C88.3367 41.3033 88.2367 40.7567 88.2367 40.13C88.2367 39.5033 88.3834 38.9567 88.6767 38.49C88.9834 38.0233 89.3501 37.6633 89.7767 37.41C90.2034 37.1567 90.7034 36.95 91.2767 36.79C92.1434 36.5633 93.0967 36.45 94.1367 36.45H94.7967C94.7967 35.9033 94.6101 35.5167 94.2367 35.29C94.0767 35.1967 93.8301 35.15 93.4967 35.15C93.1767 35.15 92.7834 35.2367 92.3167 35.41C91.8634 35.5833 91.4834 35.7633 91.1767 35.95C90.8701 36.1233 90.6634 36.21 90.5567 36.21C90.3167 36.21 89.9901 35.8967 89.5767 35.27C89.1634 34.63 88.9567 34.05 88.9567 33.53C88.9567 33.3567 89.2034 33.13 89.6967 32.85C90.1901 32.57 90.8834 32.3167 91.7767 32.09C92.6834 31.85 93.5634 31.73 94.4167 31.73C95.2701 31.73 96.0034 31.8033 96.6167 31.95C97.2434 32.0833 97.7501 32.25 98.1367 32.45C98.5367 32.65 98.8701 32.9167 99.1367 33.25C99.4167 33.5833 99.6234 33.8833 99.7567 34.15C99.9034 34.4167 100.01 34.7633 100.077 35.19C100.17 35.6833 100.217 36.29 100.217 37.01V43.03C100.217 43.1767 99.8567 43.2967 99.1367 43.39C98.4301 43.47 97.7234 43.51 97.0167 43.51C96.3234 43.51 95.8701 43.49 95.6567 43.45C95.4567 43.41 95.3367 43.3633 95.2967 43.31C95.2567 43.2567 95.2234 43.1633 95.1967 43.03L95.0367 41.89H94.8767C94.5434 43.09 93.6301 43.69 92.1367 43.69ZM94.8167 40.37V38.03C94.4701 38.03 94.1901 38.1767 93.9767 38.47C93.7634 38.7633 93.6567 39.0967 93.6567 39.47C93.6567 40.35 93.8567 40.79 94.2567 40.79C94.4301 40.79 94.5634 40.75 94.6567 40.67C94.7634 40.5767 94.8167 40.4767 94.8167 40.37ZM109.478 43.33C109.238 43.5567 108.691 43.67 107.838 43.67C106.985 43.67 106.278 43.6167 105.718 43.51C105.158 43.39 104.625 43.1633 104.118 42.83C103.145 42.1767 102.658 40.8167 102.658 38.75V35.63H101.658C101.511 35.63 101.385 35.4767 101.278 35.17C101.171 34.8633 101.118 34.4433 101.118 33.91C101.118 33.3767 101.198 32.91 101.358 32.51C101.531 32.0967 101.751 31.89 102.018 31.89H102.658V29.47C102.658 29.0567 103.058 28.7233 103.858 28.47C104.671 28.2167 105.465 28.09 106.238 28.09C107.451 28.09 108.058 28.39 108.058 28.99V31.89H109.538C109.885 31.89 110.058 32.39 110.058 33.39C110.058 34.0433 109.978 34.5833 109.818 35.01C109.671 35.4233 109.478 35.63 109.238 35.63H108.058V39.29C108.058 39.65 108.211 39.91 108.518 40.07C108.825 40.2167 109.091 40.29 109.318 40.29C109.558 40.29 109.705 40.4033 109.758 40.63C109.811 40.8567 109.838 41.1967 109.838 41.65C109.838 42.5433 109.718 43.1033 109.478 43.33ZM117.426 43.69C116.426 43.69 115.566 43.6033 114.846 43.43C114.126 43.2567 113.473 42.95 112.886 42.51C111.673 41.63 111.066 39.99 111.066 37.59C111.066 35.4567 111.686 33.93 112.926 33.01C114.086 32.1567 115.586 31.73 117.426 31.73C118.213 31.73 118.886 31.77 119.446 31.85C120.006 31.9167 120.573 32.07 121.146 32.31C121.733 32.55 122.2 32.8767 122.546 33.29C122.906 33.7033 123.2 34.2767 123.426 35.01C123.653 35.73 123.766 36.59 123.766 37.59C123.766 39.6167 123.193 41.1433 122.046 42.17C120.9 43.1833 119.36 43.69 117.426 43.69ZM116.726 39.79C116.82 40.27 116.913 40.5567 117.006 40.65C117.113 40.7433 117.246 40.79 117.406 40.79C117.58 40.79 117.713 40.7433 117.806 40.65C117.913 40.5567 118.006 40.27 118.086 39.79C118.18 39.31 118.226 38.71 118.226 37.99C118.226 37.2567 118.206 36.6967 118.166 36.31C118.14 35.91 118.1 35.6033 118.046 35.39C118.006 35.1767 117.946 35.01 117.866 34.89C117.746 34.7167 117.6 34.63 117.426 34.63C117.266 34.63 117.133 34.6833 117.026 34.79C116.92 34.8833 116.82 35.1767 116.726 35.67C116.633 36.15 116.586 36.8367 116.586 37.73C116.586 38.6233 116.633 39.31 116.726 39.79ZM130.358 37.19V43.03C130.358 43.1767 129.978 43.2967 129.218 43.39C128.471 43.47 127.691 43.51 126.878 43.51C126.078 43.51 125.558 43.4767 125.318 43.41C125.078 43.33 124.958 43.2033 124.958 43.03V33.17C124.958 32.9167 125.324 32.6433 126.058 32.35C126.804 32.0567 127.611 31.91 128.478 31.91C129.358 31.91 129.851 32.15 129.958 32.63L130.158 33.55H130.298C130.484 33.0433 130.931 32.6167 131.638 32.27C132.344 31.91 133.051 31.73 133.758 31.73C134.464 31.73 134.958 31.8433 135.238 32.07C135.531 32.2967 135.678 32.59 135.678 32.95C135.678 33.2967 135.651 33.7433 135.598 34.29C135.544 34.8367 135.411 35.43 135.198 36.07C134.998 36.71 134.731 37.03 134.398 37.03C134.264 37.03 133.844 36.93 133.138 36.73C132.431 36.53 131.844 36.43 131.378 36.43C130.924 36.43 130.638 36.4967 130.518 36.63C130.411 36.7633 130.358 36.95 130.358 37.19Z" fill="#FF3232"/>
<path d="M38.3128 54.3605V51.8623H28.4417V55.3854H37.368L28.4433 65.0644H28.4417V65.0661L28.4401 65.0677L28.4417 65.0693V67.4362H30.7285L33.0313 64.9379V67.4362H42.9025V63.913H33.9778L42.9025 54.2324V51.8623L40.614 51.8655L38.3128 54.3605Z" fill="#FF3232"/>
<path d="M47.2294 59.6709C47.2294 57.1134 49.3096 55.0331 51.8671 55.0331C52.7671 55.0331 53.6078 55.291 54.3188 55.7362L56.7402 53.1291C55.379 52.1121 53.6927 51.51 51.8671 51.51C47.3671 51.51 43.7062 55.1709 43.7062 59.6709C43.7062 61.7111 44.4589 63.5799 45.7048 65.0132L48.1262 62.4061C47.5625 61.639 47.2294 60.6926 47.2294 59.6709Z" fill="#FF3232"/>
<path d="M55.6097 56.9339C56.1718 57.7026 56.5049 58.649 56.5049 59.6707C56.5049 62.2266 54.4247 64.3069 51.8672 64.3069C50.9672 64.3069 50.1281 64.049 49.417 63.6038L46.9941 66.2126C48.3553 67.2279 50.0416 67.83 51.8672 67.83C56.3672 67.83 60.028 64.1691 60.028 59.6707C60.028 57.6289 59.2754 55.7601 58.0295 54.3268L55.6097 56.9339Z" fill="#FF3232"/>
<path d="M75.6145 54.3268L73.1947 56.9339C73.7568 57.7026 74.0899 58.649 74.0899 59.6707C74.0899 62.2266 72.0097 64.3069 69.4522 64.3069C68.5522 64.3069 67.7131 64.049 67.002 63.6038L64.5791 66.2126C65.9403 67.2279 67.6266 67.83 69.4522 67.83C73.9522 67.83 77.613 64.1691 77.613 59.6707C77.613 57.6289 76.8604 55.7601 75.6145 54.3268Z" fill="#FF3232"/>
<path d="M64.8145 59.6709C64.8145 57.1134 66.8947 55.0331 69.4522 55.0331C70.3522 55.0331 71.193 55.291 71.904 55.7362L74.3253 53.1291C72.9641 52.1121 71.2778 51.51 69.4522 51.51C64.9522 51.51 61.2914 55.1709 61.2914 59.6709C61.2914 61.7111 62.044 63.5799 63.29 65.0132L65.7113 62.4061C65.1476 61.639 64.8145 60.6926 64.8145 59.6709Z" fill="#FF3232"/>
<path d="M7.1016 67.4676C6.6528 67.3534 6.4284 67.182 6.4284 66.9535V59.1934C6.4284 59.0139 6.66912 58.8384 7.15056 58.6671C7.632 58.4957 8.13792 58.41 8.66832 58.41C9.3864 58.41 9.74544 58.5977 9.74544 58.9731V60.3562L9.6108 61.2007H9.70872C9.75768 61.1273 9.84744 61.0375 9.978 60.9315C10.1167 60.8254 10.2595 60.7356 10.4064 60.6622C10.7654 60.4745 11.1612 60.3807 11.5937 60.3807C12.0262 60.3807 12.3648 60.4378 12.6096 60.552C12.8626 60.6581 13.0625 60.8009 13.2094 60.9804C13.3644 61.1518 13.4868 61.3721 13.5766 61.6414C13.7316 62.1065 13.8091 62.6859 13.8091 63.3795C13.8091 64.53 13.6786 65.4113 13.4174 66.0233C13.1563 66.6353 12.732 67.0678 12.1445 67.3207C11.557 67.5737 10.7287 67.7002 9.65976 67.7002C8.5908 67.7002 7.73808 67.6227 7.1016 67.4676ZM9.7332 65.9009H10.1126C10.3738 65.9009 10.5043 65.2767 10.5043 64.0282C10.5043 62.7715 10.3697 62.1432 10.1004 62.1432H9.7332V65.9009ZM18.7292 66.7944V66.0723H18.6313C18.5905 66.1131 18.5293 66.1661 18.4477 66.2314C18.3661 66.2967 18.1743 66.3823 17.8724 66.4884C17.5705 66.5945 17.2319 66.6475 16.8565 66.6475C16.4893 66.6475 16.1629 66.5904 15.8773 66.4762C15.5999 66.3538 15.3795 66.1947 15.2163 65.9988C15.0531 65.7948 14.9267 65.5255 14.8369 65.191C14.6819 64.6606 14.6043 63.9099 14.6043 62.9388V61.2497C14.6043 61.0783 14.8451 60.9111 15.3265 60.7479C15.8079 60.5765 16.3139 60.4908 16.8443 60.4908C17.5542 60.4908 17.9091 60.6744 17.9091 61.0416V62.5839C17.9091 64.2159 18.0397 65.0319 18.3008 65.0319C18.4559 65.0319 18.5334 64.9217 18.5334 64.7014V61.2497C18.5334 61.0783 18.7904 60.9111 19.3045 60.7479C19.8186 60.5765 20.3694 60.4908 20.9569 60.4908C21.5444 60.4908 21.8382 60.6499 21.8382 60.9682V66.7577C21.8382 68.5774 20.606 69.4872 18.1417 69.4872C16.8443 69.4872 15.963 69.3607 15.4979 69.1078C15.2939 68.9935 15.1919 68.8752 15.1919 68.7528C15.1919 68.557 15.2735 68.2265 15.4367 67.7614C15.5999 67.3044 15.7508 67.0759 15.8895 67.0759C15.9222 67.0759 16.0364 67.1004 16.2323 67.1494C16.8361 67.3126 17.3379 67.3942 17.7378 67.3942C18.1458 67.3942 18.411 67.3493 18.5334 67.2595C18.6639 67.1698 18.7292 67.0147 18.7292 66.7944Z" fill="#FF3232"/>
<path fill-rule="evenodd" clip-rule="evenodd" d="M29.5247 42.96L29.978 35.0389L37.0003 38.7317L34.6234 43.2518L29.5247 42.96ZM11.5644 16.3003C8.51388 18.1274 8.046 23.056 10.0632 26.5499C14.4514 34.1505 29.978 35.0389 29.978 35.0389C29.5247 42.96 29.5229 42.9599 29.5209 42.9598L29.5167 42.9596L29.5072 42.959L29.4839 42.9576L29.4201 42.9536C29.3701 42.9504 29.3051 42.946 29.2261 42.9402C29.068 42.9287 28.8532 42.9117 28.5882 42.8878C28.0593 42.84 27.3252 42.7639 26.4407 42.6466C24.6884 42.4143 22.2644 42.01 19.6367 41.3148C17.043 40.6285 14.0137 39.5974 11.1714 38.0175C8.36542 36.4578 5.25669 34.0929 3.19209 30.5169C1.27747 27.2007 0.570262 23.304 1.05574 19.7002C1.53645 16.1317 3.3828 11.8618 7.66308 9.39059C9.76716 8.1758 11.9825 7.60596 14.0839 7.4794C15.2315 5.73715 16.8189 4.10445 18.9233 2.8895C23.2521 0.39029 27.9082 0.996397 31.1941 2.35827C34.523 3.73792 37.5492 6.28011 39.4547 9.58065C43.4588 16.516 41.9251 24.7228 40.6313 29.375C39.9009 32.0013 39.0132 34.2924 38.3172 35.9158C37.9658 36.7353 37.6547 37.4045 37.4237 37.8839C37.3079 38.124 37.2116 38.3178 37.1396 38.4605C37.1035 38.5318 37.0735 38.5905 37.0501 38.6359L37.0201 38.6939L37.0089 38.7154L37.0043 38.7242L37.0022 38.7281C37.0012 38.7299 37.0003 38.7317 29.978 35.0389C29.978 35.0389 37.1344 21.4298 32.5836 13.5477C30.6101 10.1294 26.0798 8.00275 22.9722 9.71443C22.9448 9.72951 22.9175 9.7449 22.8903 9.76059C19.7809 11.5558 18.8449 15.7558 19.9087 17.5985C18.8042 15.6854 14.7395 14.4665 11.6301 16.2617C11.6081 16.2744 11.5861 16.2873 11.5644 16.3003Z" fill="#FF3232"/>
</svg>
